<?xml version="1.0" encoding="utf-8"?>
<svg width="24" height="24" viewBox="0 0 24 24" fill="none" xmlns="http://www.w3.org/2000/svg">
  <defs>
    <clipPath id="clip_path_1">
      <rect width="24" height="24" />
    </clipPath>
  </defs>
  <g clip-path="url(#clip_path_1)">
    <path id="Oval Subtract" d="M9 0C4.02944 0 0 4.02944 0 9C0 13.9706 4.02944 18 9 18C13.9706 18 18 13.9706 18 9C18 4.02944 13.9706 0 9 0ZM2 9C2 7.89543 2.89543 7 4 7C5.10457 7 6 7.89543 6 9C6 10.1046 5.10457 11 4 11C2.89543 11 2 10.1046 2 9ZM12 9C12 7.89543 12.8954 7 14 7C15.1046 7 16 7.89543 16 9C16 10.1046 15.1046 11 14 11C12.8954 11 12 10.1046 12 9Z" fill="#000000" fill-rule="evenodd" transform="translate(3 3)" />
  </g>
</svg>
